<svg width="750" height="137" viewBox="0 0 750 137" fill="none" xmlns="http://www.w3.org/2000/svg">
<path d="M49.6965 56.2742H24.8482V32.249H44.8516C47.5223 32.249 49.6965 30.0392 49.6965 27.3246V6.99271H73.3335V32.249C73.3335 45.5204 62.7534 56.2742 49.6965 56.2742ZM24.8482 58.7365H0V82.7617H20.0033C22.6741 82.7617 24.8482 84.9715 24.8482 87.6861V108.018H48.4852V82.7617C48.4852 69.4902 37.9052 58.7365 24.8482 58.7365ZM104.238 57.5053C101.567 57.5053 99.3929 55.2955 99.3929 52.5809V32.249H75.7559V57.5053C75.7559 70.7768 86.3359 81.5305 99.3929 81.5305H124.241V57.5053H104.238ZM50.9077 108.018V133.274H74.5447V112.942C74.5447 110.228 76.7188 108.018 79.3896 108.018H99.3929V83.9928H74.5447C61.4877 83.9928 50.9077 94.7466 50.9077 108.018Z" fill="#F0529C"/>
<path d="M303.913 133H284.461V22.5227L245.936 133H220.252L181.727 22.5227V133H162.275V7.41475H196.079L233.283 114.115L270.486 7.41475H303.913V133Z" fill="#F0529C"/>
<path d="M371.31 136.022C360.734 136.022 351.796 133.818 344.493 129.412C337.191 125.005 331.715 119.025 328.063 111.471C324.412 103.791 322.587 95.167 322.587 85.5986C322.587 76.1561 324.412 67.6579 328.063 60.1039C331.715 52.5499 337.191 46.5697 344.493 42.1631C351.796 37.7566 360.734 35.5534 371.31 35.5534C381.886 35.5534 390.825 37.7566 398.127 42.1631C405.429 46.5697 410.906 52.6129 414.557 60.2928C418.208 67.8468 420.033 76.282 420.033 85.5986C420.033 95.0411 418.208 103.602 414.557 111.282C410.906 118.836 405.429 124.879 398.127 129.412C390.825 133.818 381.886 136.022 371.31 136.022ZM341.661 85.7875C341.661 98.2516 343.99 107.253 348.648 112.793C353.432 118.207 360.986 120.914 371.31 120.914C381.634 120.914 389.125 118.207 393.783 112.793C398.567 107.253 400.96 98.2516 400.96 85.7875C400.96 73.3234 398.567 64.3845 393.783 58.9708C389.125 53.4312 381.634 50.6614 371.31 50.6614C360.986 50.6614 353.432 53.4312 348.648 58.9708C343.99 64.3845 341.661 73.3234 341.661 85.7875Z" fill="#F0529C"/>
<path d="M439.671 0.804993H458.556V133H439.671V0.804993Z" fill="#F0529C"/>
<path d="M615.912 75.7785C615.912 67.0913 614.212 60.8593 610.813 57.0823C607.414 53.1794 602.441 51.2279 595.894 51.2279C586.955 51.2279 580.219 54.5643 575.687 61.237C571.281 67.9097 569.077 78.5482 569.077 93.1526V133H550.57V75.7785C550.57 67.0913 548.87 60.8593 545.471 57.0823C542.072 53.1794 537.099 51.2279 530.552 51.2279C521.739 51.2279 515.066 54.5643 510.534 61.237C506.001 67.9097 503.735 78.5482 503.735 93.1526V133H484.85V38.575H503.735V59.1596C510.03 43.4221 521.109 35.5534 536.973 35.5534C545.66 35.5534 552.521 37.6307 557.557 41.7854C562.593 45.8142 565.993 51.8574 567.755 59.9151C574.05 43.6739 585.57 35.5534 602.315 35.5534C623.97 35.5534 634.797 48.3952 634.797 74.0788V133H615.912V75.7785Z" fill="#F0529C"/>
<path d="M701.06 136.022C690.484 136.022 681.545 133.818 674.243 129.412C666.941 125.005 661.464 119.025 657.813 111.471C654.162 103.791 652.337 95.167 652.337 85.5986C652.337 76.1561 654.162 67.6579 657.813 60.1039C661.464 52.5499 666.941 46.5697 674.243 42.1631C681.545 37.7566 690.484 35.5534 701.06 35.5534C711.636 35.5534 720.574 37.7566 727.877 42.1631C735.179 46.5697 740.655 52.6129 744.307 60.2928C747.958 67.8468 749.783 76.282 749.783 85.5986C749.783 95.0411 747.958 103.602 744.307 111.282C740.655 118.836 735.179 124.879 727.877 129.412C720.574 133.818 711.636 136.022 701.06 136.022ZM671.41 85.7875C671.41 98.2516 673.74 107.253 678.398 112.793C683.182 118.207 690.736 120.914 701.06 120.914C711.384 120.914 718.875 118.207 723.533 112.793C728.317 107.253 730.709 98.2516 730.709 85.7875C730.709 73.3234 728.317 64.3845 723.533 58.9708C718.875 53.4312 711.384 50.6614 701.06 50.6614C690.736 50.6614 683.182 53.4312 678.398 58.9708C673.74 64.3845 671.41 73.3234 671.41 85.7875Z" fill="#F0529C"/>
</svg>
