<svg width="690" height="130" viewBox="0 0 690 130" fill="none" xmlns="http://www.w3.org/2000/svg">
<path d="M49.6965 49.2742H24.8482V25.249H44.8516C47.5223 25.249 49.6965 23.0391 49.6965 20.3245V-0.00732422H73.3335V25.249C73.3335 38.5204 62.7534 49.2742 49.6965 49.2742ZM24.8482 51.7364H0V75.7616H20.0033C22.6741 75.7616 24.8482 77.9715 24.8482 80.6861V101.018H48.4852V75.7616C48.4852 62.4902 37.9052 51.7364 24.8482 51.7364ZM104.238 50.5053C101.567 50.5053 99.3929 48.2955 99.3929 45.5808V25.249H75.7559V50.5053C75.7559 63.7767 86.3359 74.5305 99.3929 74.5305H124.241V50.5053H104.238ZM50.9077 101.018V126.274H74.5447V105.942C74.5447 103.228 76.7188 101.018 79.3896 101.018H99.3929V76.9927H74.5447C61.4877 76.9927 50.9077 87.7465 50.9077 101.018Z" fill="#F0529C"/>
<path d="M221.574 0.414711C234.668 0.414711 244.425 4.00286 250.846 11.1792C257.393 18.3555 260.666 27.4203 260.666 38.3736C260.666 49.4528 257.456 58.5805 251.035 65.7568C244.614 72.9331 234.794 76.5213 221.574 76.5213H181.916V126H162.275V0.414711H221.574ZM216.853 60.8467C232.465 60.8467 240.27 53.3557 240.27 38.3736C240.27 23.5174 232.465 16.0893 216.853 16.0893H181.916V60.8467H216.853Z" fill="#F0529C"/>
<path d="M304.141 126H285.256V52.3485C285.256 50.9636 284.942 50.0193 284.312 49.5157C283.809 48.8862 282.864 48.5715 281.479 48.5715H269.015V31.575H283.368C289.537 31.575 294.51 33.4635 298.287 37.2405C302.064 40.8916 304.016 45.7387 304.141 51.7819V126ZM278.08 0.414711H301.875V17.4112H278.08V0.414711Z" fill="#F0529C"/>
<path d="M356.031 78.7875L319.772 31.575H342.245L367.551 66.8899L392.857 31.575H414.008L378.315 78.0321L415.896 126H393.423L366.984 89.9296L340.356 126H319.205L356.031 78.7875Z" fill="#F0529C"/>
<path d="M573.54 126H554.089V15.5227L515.563 126H489.88L451.354 15.5227V126H431.903V0.414711H465.707L502.91 107.115L540.114 0.414711H573.54V126Z" fill="#F0529C"/>
<path d="M640.938 129.022C630.362 129.022 621.423 126.818 614.121 122.412C606.819 118.005 601.342 112.025 597.691 104.471C594.04 96.7912 592.214 88.167 592.214 78.5986C592.214 69.1561 594.04 60.6579 597.691 53.1039C601.342 45.5499 606.819 39.5696 614.121 35.1631C621.423 30.7566 630.362 28.5534 640.938 28.5534C651.513 28.5534 660.452 30.7566 667.754 35.1631C675.057 39.5696 680.533 45.6128 684.184 53.2927C687.835 60.8467 689.661 69.282 689.661 78.5986C689.661 88.0411 687.835 96.6023 684.184 104.282C680.533 111.836 675.057 117.879 667.754 122.412C660.452 126.818 651.513 129.022 640.938 129.022ZM611.288 78.7875C611.288 91.2516 613.617 100.253 618.276 105.793C623.06 111.207 630.614 113.914 640.938 113.914C651.262 113.914 658.753 111.207 663.411 105.793C668.195 100.253 670.587 91.2516 670.587 78.7875C670.587 66.3234 668.195 57.3845 663.411 51.9708C658.753 46.4312 651.262 43.6614 640.938 43.6614C630.614 43.6614 623.06 46.4312 618.276 51.9708C613.617 57.3845 611.288 66.3234 611.288 78.7875Z" fill="#F0529C"/>
</svg>
